<svg xmlns="http://www.w3.org/2000/svg" viewBox="0 0 50 37.32"><defs><style>.cls-1{fill:#d75d33;}</style></defs><title>Asset 3</title><g id="Layer_2" data-name="Layer 2"><g id="Layer_3" data-name="Layer 3"><path class="cls-1" d="M45.25,0H4.75A4.75,4.75,0,0,0,0,4.75V32.57a4.75,4.75,0,0,0,4.75,4.75h40.5A4.75,4.75,0,0,0,50,32.57V4.75A4.75,4.75,0,0,0,45.25,0Zm.2,32.78H4.78v-18c1.13.85,6.05,4.58,10.05,7.85C17.14,24.51,21.05,28,25.12,28c4.31,0,7.77-3.75,10.05-5.47C40,18.9,45.45,14.59,45.45,14.59Zm0-24.17S39.71,13.16,32.3,19.14c-1.61,1.29-5,4.3-7.42,4.3-2.15,0-5.32-3-6.94-4.3C10.54,13.35,7.16,10.7,4.78,8.8V4.55H45.45Z"/></g></g></svg>