<svg xmlns="http://www.w3.org/2000/svg" viewBox="0 0 49.97 48.76"><defs><style>.cls-1{fill:#d75d33;fill-rule:evenodd;}</style></defs><title>Asset 1</title><g id="Layer_2" data-name="Layer 2"><g id="Layer_2-2" data-name="Layer 2"><path class="cls-1" d="M25,0a25,25,0,0,0-7.9,48.72c1.25.23,1.7-.54,1.7-1.2V43.27c-7,1.51-8.42-3.36-8.42-3.36C9.21,37,7.57,36.26,7.57,36.26c-2.27-1.55.17-1.52.17-1.52a5.24,5.24,0,0,1,3.83,2.57c2.23,3.82,5.86,2.72,7.28,2.08a5.37,5.37,0,0,1,1.59-3.34c-5.55-.63-11.39-2.78-11.39-12.36A9.68,9.68,0,0,1,11.62,17a9,9,0,0,1,.25-6.61S14,9.72,18.74,13a23.75,23.75,0,0,1,12.52,0c4.77-3.23,6.87-2.56,6.87-2.56A9,9,0,0,1,38.38,17,9.67,9.67,0,0,1,41,23.69C41,33.3,35.1,35.41,29.53,36a6,6,0,0,1,1.7,4.63v6.86c0,.67.45,1.44,1.72,1.2A25,25,0,0,0,25,0Z"/></g></g></svg>