<svg xmlns="http://www.w3.org/2000/svg" viewBox="0 0 50 50"><defs><style>.cls-1{fill:#d75d33;}</style></defs><title>Asset 4</title><g id="Layer_2" data-name="Layer 2"><g id="Layer_1-2" data-name="Layer 1"><path id="linkedin-circle-icon" class="cls-1" d="M25,0A25,25,0,1,0,50,25,25,25,0,0,0,25,0ZM18.33,37.09H12.84V19.35h5.49ZM15.56,17a3.27,3.27,0,1,1,3.24-3.27A3.26,3.26,0,0,1,15.56,17ZM38.9,37.09H33.44V27.78c0-2.56-1-4-3-4-2.2,0-3.35,1.48-3.35,4v9.31H21.84V19.35H27.1v2.39a6.2,6.2,0,0,1,5.35-2.93c3.76,0,6.45,2.3,6.45,7.05Z"/></g></g></svg>